# xmcd CD database file
#
# Track frame offsets:
#	150
#	21110
#	47741
#	68334
#	91448
#	113371
#	118787
#	136108
#	172357
#	190816
#	207117
#	229786
#
# Disc length: 3274 seconds
#
# Revision: 2
# Processed by: cddbd v1.5.1PL0 Copyright (c) Steve Scherf et al.
# Submitted via: CDex 1.50
#
DISCID=9b0cc80c
DTITLE=Ross Quaresmini - Megaptera
DYEAR=1997
DGENRE=New Age
TTITLE0=Megaptera I
TTITLE1=Last Thing I Remember
TTITLE2=Behind The Eyes Of A Hawk
TTITLE3=Dans Une Goutte D'eau De Mer	
TTITLE4=The Water By Arer
TTITLE5=Prelude
TTITLE6=Silence And I
TTITLE7=Megaptera II
TTITLE8=Latest Rainbow
TTITLE9=Sonny
TTITLE10=Cayamarcuilla
TTITLE11=Nexus
EXTD=YEAR: 1997
EXTT0=
EXTT1=
EXTT2=
EXTT3=
EXTT4=
EXTT5=
EXTT6=
EXTT7=
EXTT8=
EXTT9=
EXTT10=
EXTT11=
PLAYORDER=
